<svg xmlns="http://www.w3.org/2000/svg" version="1.1" xmlns:xlink="http://www.w3.org/1999/xlink" xmlns:svgjs="http://svgjs.dev/svgjs" width="100%" height="100%" viewBox="0 0 1000 600"><rect width="1000" height="600" x="0" y="0" fill="transparent"/><g><rect width="333.3333333333333" height="333.3333333333333" rx="13.333333333333334" ry="13.333333333333334" y="255.9145798783385" fill="#d1ddec" transform="matrix(0.5348912366120513,0,0,0.5348912366120513,0,73.96498627538375)" x="233.6923065185547"/><path d="M351.5831869116362 347.58125405336625L351.5831869116362 497.58125807746586L399.58084399143206 497.58125807746586Q409.16279384802135 497.4640476816666 418.1879943245642 494.5923929845848Q427.18389220215715 491.720738287503 434.09930555431333 486.24115228388774L434.09930555431333 486.24115228388774Q440.9854163075197 480.8787766760717 445.1170827594435 472.84986456382256Q449.24874921136734 464.8209524515734 449.1315388155681 454.3013194285901L449.1315388155681 454.3013194285901Q449.1315388155681 447.6203268680324 447.10965948803096 441.847714874919Q445.1170827594435 436.07510288180555 441.5128630886164 431.4452922477349L441.5128630886164 431.4452922477349Q438.1137616104379 427.2257179989616 432.8685963984211 423.7094061249839Q427.5941285874546 420.222396849956 421.93872699014037 418.87447729826454L421.93872699014037 418.87447729826454L421.93872699014037 418.5814513087664Q427.3890103948059 416.2079407938315 431.25695345618135 413.51210169044856Q435.12489651755686 410.84556518601545 438.3188798030866 406.9190169267403L438.3188798030866 406.9190169267403Q441.3956526928172 403.1096790632644 443.21241382770563 398.27475023654506Q444.9998723636443 393.4398214098257 445.1170827594435 387.54999902091305L445.1170827594435 387.54999902091305Q445.20499055629296 377.0596685968795 441.102626703319 369.5289006667772Q436.9709602513951 361.9981327366749 430.08484949818876 357.16320390995554L430.08484949818876 357.16320390995554Q423.1694361460326 352.3282750832362 414.3200512631887 350.01336976620087Q405.44136378139495 347.6984644491655 396.18174251325365 347.58125405336625L396.18174251325365 347.58125405336625L351.5831869116362 347.58125405336625ZM370.74708662481476 481.4062234571683L370.74708662481476 427.43083619161035L401.1338817357722 427.43083619161035Q407.19951971838384 427.63595438425904 412.44468493040057 429.48201811809736Q417.7191527413671 431.3280818519357 421.61639840169244 434.7271833301141L421.61639840169244 434.7271833301141Q425.5429466609676 438.24349520409186 427.7406415822037 443.19563442661047Q429.9676391023895 448.11847105017927 429.8797313055401 454.5064376212388L429.8797313055401 454.5064376212388Q429.8797313055401 460.80649639544885 427.4476155927055 465.7586356179675Q425.01549987987096 470.6814722415363 420.91313602689695 474.0805737197148L420.91313602689695 474.0805737197148Q416.78146957497313 477.4796751978932 411.4190939671571 479.3843441296312Q406.05671835934106 481.3183156603189 400.10829077252873 481.4062234571683L400.10829077252873 481.4062234571683L370.74708662481476 481.4062234571683ZM397.3245438722964 411.548827560811L370.74708662481476 411.548827560811L370.74708662481476 363.87349906946304L396.7970970911997 363.87349906946304Q402.3645908916644 363.9614068663125 407.66836130158083 365.30932641800393Q412.97213171149724 366.6572459696954 417.10379816342106 369.44099286992775L417.10379816342106 369.44099286992775Q421.11825421954563 372.31264756700955 423.52106733343044 376.73734000843154Q425.95318304626494 381.1620324498535 425.95318304626494 387.4620912240636L425.95318304626494 387.4620912240636Q425.95318304626494 393.32261101402645 423.4917647344806 397.7473034554484Q421.0010438237464 402.2012984958202 416.9865877676218 405.1608609897514L416.9865877676218 405.1608609897514Q412.97213171149724 408.2669364784318 407.8148742963299 409.84927682172173Q402.65761688116254 411.4609197639615 397.3245438722964 411.548827560811L397.3245438722964 411.548827560811Z " fill="white" transform="matrix(0.5348912366120513,0,0,0.5348912366120513,0,73.96498627538375)"/><path d="M691.5047406444992 350.7772474077241L650.3589779676677 350.7772474077241L650.3589779676677 362.75692933935295L677.7259898715479 362.75692933935295L677.7259898715479 453.1548472368566L650.3589779676677 453.1548472368566L650.3589779676677 465.0710326211447L717.7711457278056 465.0710326211447L717.7711457278056 453.1548472368566L691.5047406444992 453.1548472368566L691.5047406444992 350.7772474077241ZM792.5489129794751 465.0710326211447L792.5489129794751 465.0710326211447L806.9202981942738 465.0710326211447L806.9202981942738 463.88576373744996Q805.5657051843368 460.54161224416845 804.8249121320277 456.0333573829724Q804.0841190797184 451.5251025217763 804.0841190797184 447.50365452352634L804.0841190797184 447.50365452352634L804.0841190797184 410.0830226240212Q804.0841190797184 403.310057574337 801.6289192492079 398.25149930285414Q799.1737194186974 393.1929410313713 794.9406162626449 389.76412747496863L794.9406162626449 389.76412747496863Q790.6228510434712 386.41997598168706 784.738837656558 384.7479002350463Q778.8548242696448 383.0758244884055 772.0183626726199 383.0758244884055L772.0183626726199 383.0758244884055Q764.5046045706265 383.0758244884055 758.5782601521529 385.1500450348713Q752.6730812494594 387.2454310971173 748.5669711880884 390.5895825903989L748.5669711880884 390.5895825903989Q744.3973645793766 394.01839614680154 742.2173164540095 398.25149930285414Q740.0161028128621 402.48460245890675 739.9314407497411 406.8870297412015L739.9314407497411 406.8870297412015L753.7736880700331 406.8870297412015Q753.7736880700331 404.3471678475699 755.0012879852884 402.01896111174096Q756.2288879005437 399.6695888601318 758.4724325732516 397.95518208193045L758.4724325732516 397.95518208193045Q760.6948117301791 396.24077530372915 763.9331356445593 395.20366503049627Q767.1714595589397 394.1665547572634 771.2775696203107 394.1665547572634L771.2775696203107 394.1665547572634Q775.6588313868251 394.1665547572634 779.1934725221291 395.26716157783704Q782.728113657433 396.388933914191 785.1833134879436 398.399657913316L785.1833134879436 398.399657913316Q787.638513318454 400.47387845978176 788.9719408126107 403.3947196374581Q790.3265338225474 406.2943952993541 790.3265338225474 409.9348640135594L790.3265338225474 409.9348640135594L790.3265338225474 416.26335323185805L775.2778521027803 416.26335323185805Q766.875142338016 416.26335323185805 760.0598462567713 417.8930979469383Q753.2657156913068 419.52284266201855 748.4188125776266 422.80349760795934L748.4188125776266 422.80349760795934Q743.5930749797266 426.1476491012409 740.9473855071938 431.14271082538295Q738.3016960346608 436.1166070337448 738.3016960346608 442.74141347296717L738.3016960346608 442.74141347296717Q738.3016960346608 447.79997174445003 740.2700890022253 452.16006799518425Q742.2384819697897 456.5201642459184 745.9001161997753 459.6314950656171L745.9001161997753 459.6314950656171Q749.4559228508595 462.8486534642171 754.6414742170239 464.6900533371Q759.805860067408 466.5526187257631 766.2190113488278 466.5526187257631L766.2190113488278 466.5526187257631Q770.1557972839568 466.5526187257631 773.6481073877002 465.7483291261131Q777.1404174914436 464.92287401068285 780.2729138269225 463.50478445340525L780.2729138269225 463.50478445340525Q783.3207480992803 462.08669489612765 785.8817755086923 460.22412950746445Q788.4639684338844 458.3827296345816 790.5381889803501 456.28734357233554L790.5381889803501 456.28734357233554Q790.771009653933 458.8272054659671 791.2578165168791 461.155412201796Q791.7234578640448 463.50478445340525 792.5489129794751 465.0710326211447ZM768.2085698321725 454.57293679413425L768.2085698321725 454.57293679413425Q764.2082873497028 454.57293679413425 761.1392875615646 453.5358265209013Q758.0914532892068 452.4987162476684 756.0807292900818 450.6361508590053L756.0807292900818 450.6361508590053Q754.0700052909568 448.8582475334632 753.0752260492844 446.3183856398316Q752.0804468076121 443.7996892619803 752.0804468076121 440.8153515369632L752.0804468076121 440.8153515369632Q752.0804468076121 437.6828552014843 753.2233846597462 435.22765537097376Q754.3874880276608 432.7724555404632 756.6098671845883 430.99455221492116L756.6098671845883 430.99455221492116Q759.7423635200673 428.45469032128955 765.0549079809133 427.22709040603434Q770.3674524417594 425.99949049077907 777.5213967754883 425.99949049077907L777.5213967754883 425.99949049077907L790.3265338225474 425.99949049077907L790.3265338225474 442.2969376415816Q789.1200994230725 444.6886409247514 787.0458788766067 446.86868905011846Q784.9504928143606 449.06990269126584 782.1354792155856 450.78430946946713L782.1354792155856 450.78430946946713Q779.2358035536896 452.4987162476684 775.7434934499462 453.5358265209013Q772.2300178304225 454.57293679413425 768.2085698321725 454.57293679413425ZM837.8007857176776 392.1558307581384L837.4198064336329 384.5574105930239L825.0591452179592 384.5574105930239L825.0591452179592 465.0710326211447L838.160599485942 465.0710326211447L838.160599485942 401.0030163542884Q838.6050753173275 399.81774747059364 839.3247028538565 398.7806371973607Q840.0231648746052 397.7223614083476 840.9967786004972 396.91807180869756L840.9967786004972 396.91807180869756Q842.2455440315329 395.85979601968444 844.0869439044156 395.3094926093976Q845.9071782615183 394.7591891991107 848.3623780920288 394.7591891991107L848.3623780920288 394.7591891991107Q850.5847572489565 394.7591891991107 852.2568329955973 395.3094926093976Q853.928908742238 395.85979601968444 855.050681078592 397.0662304191594L855.050681078592 397.0662304191594Q856.2359499622867 398.3149958501949 856.8074188883538 400.26222330197913Q857.3577222986407 402.18828523798305 857.3577222986407 404.72814713161466L857.3577222986407 404.72814713161466L857.3577222986407 465.0710326211447L870.4591765666235 465.0710326211447L870.4591765666235 404.79164367895544Q870.4591765666235 404.3471678475699 870.4591765666235 404.0085195950857Q870.4591765666235 403.6910368583818 870.4591765666235 403.310057574337L870.4591765666235 403.310057574337Q870.6708317244261 401.44749218567387 871.3481282293945 399.9235750494949Q872.025424734363 398.399657913316 873.2106936180578 397.21438902962126L873.2106936180578 397.21438902962126Q874.3959625017525 396.0926166932673 876.1950313430748 395.4153201882989Q877.972934668617 394.7591891991107 880.4281344991274 394.7591891991107L880.4281344991274 394.7591891991107Q882.7351757191761 394.7591891991107 884.491913528938 395.3518236409581Q886.2274858229196 395.94445808280545 887.4127547066142 397.1297269665002L887.4127547066142 397.1297269665002Q888.5345270429682 398.399657913316 889.1271614848156 400.3257198493199Q889.719795926663 402.2729473011041 889.719795926663 404.79164367895544L889.719795926663 404.79164367895544L889.719795926663 465.0710326211447L902.8212501946458 465.0710326211447L902.8212501946458 404.9398022894173Q902.8212501946458 399.1404509656252 901.4878227004892 394.86501677801203Q900.1543952063325 390.5895825903989 897.614533312701 387.9015620863055L897.614533312701 387.9015620863055Q895.3074920926524 385.531024318916 891.9633405993708 384.30342440366076Q888.6191891060893 383.0758244884055 884.4495824973774 383.0758244884055L884.4495824973774 383.0758244884055Q881.4017482250196 383.1393210357463 878.8195552998275 383.8801140880555Q876.2585278904156 384.642072656145 874.1843073439499 385.8908380871805L874.1843073439499 385.8908380871805Q872.5333971130893 387.01261042353445 871.1364730715919 388.4941965281529Q869.7183835143144 389.99694814855155 868.6812732410814 391.71135492675285L868.6812732410814 391.71135492675285Q867.8558181256511 389.8487895380897 866.6917147577367 388.34603791769104Q865.5487769056025 386.8644518130726 864.1306873483248 385.8273415398397L864.1306873483248 385.8273415398397Q862.2046254123209 384.49391404568314 859.6224324871288 383.7742865091542Q857.0614050777169 383.0758244884055 853.8654121948973 383.0758244884055L853.8654121948973 383.0758244884055Q848.214219481567 383.1393210357463 844.2351025148776 385.531024318916Q840.2559855481882 387.9015620863055 837.8007857176776 392.1558307581384L837.8007857176776 392.1558307581384ZM943.0780612087062 395.20366503049627L943.0780612087062 465.0710326211447L956.9203085289982 465.0710326211447L956.9203085289982 395.20366503049627L987.9489546628639 395.20366503049627L987.9489546628639 384.5574105930239L956.9203085289982 384.5574105930239L956.9203085289982 378.90621787969366Q956.9203085289982 373.8476596082108 958.2325705073745 370.05903228354373Q959.5236669699707 366.24923944309637 962.0635288636022 363.8787016757069L962.0635288636022 363.8787016757069Q964.4340666309917 361.5716604556582 968.0533698294166 360.4075570877437Q971.6515075120614 359.26461923560953 976.3502520152797 359.26461923560953L976.3502520152797 359.26461923560953Q980.9643344553772 359.26461923560953 985.0069479694073 360.0477433194793Q989.0707269992179 360.830867403349 992.1185612715758 361.8679776765819L992.1185612715758 361.8679776765819L993.7483059866561 350.4809301868004Q991.822244050652 349.9517922922938 989.9596786619888 349.5496474924688Q988.0971132733258 349.1475026926438 986.2345478846626 348.766523408599L986.2345478846626 348.766523408599Q983.4195342858876 348.23738551409247 980.5198586239915 347.91990277738853Q977.5990174463152 347.58125452490435 974.6358452370785 347.58125452490435L974.6358452370785 347.58125452490435Q967.4819009033495 347.58125452490435 961.6825495795574 349.5919785240293Q955.8831982557654 351.60270252315433 951.7770881943943 355.53948845828324L951.7770881943943 355.53948845828324Q947.6286471014628 359.47627439341215 945.3427713971944 365.3179567487648Q943.0780612087062 371.1596391041174 943.0780612087062 378.90621787969366L943.0780612087062 378.90621787969366L943.0780612087062 384.5574105930239L920.8966006709904 384.5574105930239L920.8966006709904 395.20366503049627L943.0780612087062 395.20366503049627ZM1057.308349874786 384.5574105930239L1016.1414216821743 384.5574105930239L1016.1414216821743 396.53709252465285L1043.5295991018347 396.53709252465285L1043.5295991018347 453.1548472368566L1016.1414216821743 453.1548472368566L1016.1414216821743 465.0710326211447L1083.5747549580924 465.0710326211447L1083.5747549580924 453.1548472368566L1057.308349874786 453.1548472368566L1057.308349874786 384.5574105930239ZM1041.7516957762928 363.43422584432136L1041.7516957762928 363.43422584432136Q1041.7516957762928 366.77837733760293 1043.804750806978 369.00075649453055Q1045.8366403218834 371.24430116723846 1050.0062469305954 371.24430116723846L1050.0062469305954 371.24430116723846Q1054.091191476186 371.24430116723846 1056.1865775384322 369.00075649453055Q1058.260798084898 366.77837733760293 1058.260798084898 363.43422584432136L1058.260798084898 363.43422584432136Q1058.260798084898 361.5716604556582 1057.6681636430505 360.0054122879187Q1057.0755292012032 358.43916412017927 1055.8902603175084 357.4020538469464L1055.8902603175084 357.4020538469464Q1054.9166465916164 356.4284401210543 1053.4350604869978 355.8781367107674Q1051.9534743823795 355.3066677847004 1050.0062469305954 355.3066677847004L1050.0062469305954 355.3066677847004Q1048.0801849945915 355.3066677847004 1046.5562678584124 355.8781367107674Q1045.0323507222333 356.4284401210543 1044.0587369963414 357.4020538469464L1044.0587369963414 357.4020538469464Q1042.8734681126466 358.52382618330034 1042.3019991865795 360.06890883525955Q1041.7516957762928 361.635157002999 1041.7516957762928 363.43422584432136ZM1119.2174835320557 396.53709252465285L1119.2174835320557 396.53709252465285L1119.2174835320557 350.7772474077241L1105.4387327591044 350.7772474077241L1105.4387327591044 465.0710326211447L1119.2174835320557 465.0710326211447L1119.2174835320557 406.5907125202778Q1120.699069636674 404.19900923710804 1122.6039660568977 402.2306162695436Q1124.487696961341 400.26222330197913 1126.731241634049 398.7806371973607L1126.731241634049 398.7806371973607Q1129.546255232824 396.8334097455765 1132.9115722418858 395.7962994723436Q1136.2557237351675 394.7591891991107 1139.9596889967133 394.7591891991107L1139.9596889967133 394.7591891991107Q1144.51027488947 394.6745271359897 1148.0025849932135 395.986789114366Q1151.4948950969567 397.27788557696203 1153.8019363170056 399.8812440179344L1153.8019363170056 399.8812440179344Q1155.9608189265923 402.2729473011041 1157.0825912629462 405.87108498374886Q1158.2043635993002 409.49038818217383 1158.2043635993002 414.25262923273306L1158.2043635993002 414.25262923273306L1158.2043635993002 465.0710326211447L1171.9619488564713 465.0710326211447L1171.9619488564713 414.4007878431949Q1171.9619488564713 406.2943952993541 1169.9935558889067 400.36805088088045Q1168.0251629213421 394.462871978187 1164.384694207137 390.5895825903989L1164.384694207137 390.5895825903989Q1160.7230599771515 386.71629320261076 1155.5586741267675 384.89605884550815Q1150.3942882763831 383.0758244884055 1144.0657990580844 383.0758244884055L1144.0657990580844 383.0758244884055Q1139.2188959444043 383.1393210357463 1134.943461756791 384.49391404568314Q1130.6680275691779 385.8273415398397 1127.0910554023135 388.43069998081205L1127.0910554023135 388.43069998081205Q1124.8686762453858 389.99694814855155 1122.8579522462608 392.0288376634568Q1120.8472282471357 394.0818926941423 1119.2174835320557 396.53709252465285ZM1196.7467678351593 356.724757341978L1196.7467678351593 465.0710326211447L1231.4158826832302 465.0710326211447Q1238.3370063433763 464.9863705580237 1244.8559852036974 462.91215001155786Q1251.353798548238 460.8379294650921 1256.34886027238 456.8799780141829L1256.34886027238 456.8799780141829Q1261.3227564807416 453.00668862639475 1264.3070942057589 447.20733730260264Q1267.291431930776 441.4079859788106 1267.2067698676547 433.8095658136961L1267.2067698676547 433.8095658136961Q1267.2067698676547 428.98382821579617 1265.767514794597 424.81422160708433Q1264.3070942057589 420.6446149983725 1261.7037357647864 417.30046350509093L1261.7037357647864 417.30046350509093Q1259.2485359342759 414.25262923273306 1255.459908609609 411.7127673391015Q1251.6501157691619 409.19407096125013 1247.565171223571 408.2204572353581L1247.565171223571 408.2204572353581L1247.565171223571 408.00880207755546Q1251.5019571587 406.2943952993541 1254.2958052416948 404.3471678475699Q1257.0896533246894 402.421105911566 1259.3966945447378 399.5849267970107L1259.3966945447378 399.5849267970107Q1261.6402392174455 396.8334097455765 1262.9313356800417 393.3410996418331Q1264.243597658418 389.8487895380897 1264.3070942057589 385.5945208662568L1264.3070942057589 385.5945208662568Q1264.3917562688798 378.0172662169226 1261.407418543863 372.577728661395Q1258.4230808188458 367.1381911058674 1253.449184610484 363.645881002124L1253.449184610484 363.645881002124Q1248.454122886342 360.1535708983806 1242.0621371207026 358.4814951517398Q1235.6701513550631 356.809419405099 1228.9606828527196 356.724757341978L1228.9606828527196 356.724757341978L1196.7467678351593 356.724757341978ZM1210.5890151554513 453.3876679104395L1210.5890151554513 414.4007878431949L1232.5376550195842 414.4007878431949Q1236.9189167860986 414.5489464536567 1240.7287096265459 415.8823739478133Q1244.517336951213 417.21580144196986 1247.3535160657684 419.6710012724804L1247.3535160657684 419.6710012724804Q1250.1685296645433 422.21086316611195 1251.7771088638433 425.78783533297644Q1253.3645225473629 429.34364198406064 1253.3010260000221 433.95772442415796L1253.3010260000221 433.95772442415796Q1253.3010260000221 438.50831031691456 1251.5442881902604 442.085282483779Q1249.808715896279 445.6410891348632 1246.8243781712617 448.09628896537373L1246.8243781712617 448.09628896537373Q1243.8400404462445 450.55148879588427 1239.9667510584563 451.9272473216013Q1236.1146271864486 453.3241713630987 1231.796861967275 453.3876679104395L1231.796861967275 453.3876679104395L1210.5890151554513 453.3876679104395ZM1229.78613796815 402.9290782902923L1210.5890151554513 402.9290782902923L1210.5890151554513 368.4927841158042L1229.4051586841051 368.4927841158042Q1233.4266066823552 368.556280663145 1237.257565038583 369.52989438903717Q1241.0885233948106 370.5035081149292 1244.0728611198274 372.51423211405427L1244.0728611198274 372.51423211405427Q1246.9725367817236 374.58845266052003 1248.7292745914856 377.78444554333976Q1250.464846885467 380.9804384261595 1250.464846885467 385.531024318916L1250.464846885467 385.531024318916Q1250.464846885467 389.76412747496863 1248.6869435599249 392.96012035778836Q1246.8878747186027 396.1772787563884 1243.9881990567064 398.3149958501949L1243.9881990567064 398.3149958501949Q1241.0885233948106 400.55854052290283 1237.3633926174841 401.701478375037Q1233.659427355938 402.8655817429515 1229.78613796815 402.9290782902923L1229.78613796815 402.9290782902923ZM1331.6557654185558 384.5574105930239L1290.5100027417247 384.5574105930239L1290.5100027417247 396.53709252465285L1317.8770146456045 396.53709252465285L1317.8770146456045 453.1548472368566L1290.5100027417247 453.1548472368566L1290.5100027417247 465.0710326211447L1357.9221705018626 465.0710326211447L1357.9221705018626 453.1548472368566L1331.6557654185558 453.1548472368566L1331.6557654185558 384.5574105930239ZM1316.0991113200625 363.43422584432136L1316.0991113200625 363.43422584432136Q1316.0991113200625 366.77837733760293 1318.1521663507483 369.00075649453055Q1320.1840558656536 371.24430116723846 1324.3536624743651 371.24430116723846L1324.3536624743651 371.24430116723846Q1328.4597725357362 371.24430116723846 1330.533993082202 369.00075649453055Q1332.6082136286677 366.77837733760293 1332.6082136286677 363.43422584432136L1332.6082136286677 363.43422584432136Q1332.6082136286677 361.5716604556582 1332.0155791868206 360.0054122879187Q1331.422944744973 358.43916412017927 1330.2376758612781 357.4020538469464L1330.2376758612781 357.4020538469464Q1329.2640621353862 356.4284401210543 1327.7824760307676 355.8781367107674Q1326.3008899261495 355.3066677847004 1324.3536624743651 355.3066677847004L1324.3536624743651 355.3066677847004Q1322.4276005383613 355.3066677847004 1320.9036834021822 355.8781367107674Q1319.3797662660036 356.4284401210543 1318.4061525401112 357.4020538469464L1318.4061525401112 357.4020538469464Q1317.2208836564164 358.52382618330034 1316.6494147303492 360.06890883525955Q1316.0991113200625 361.635157002999 1316.0991113200625 363.43422584432136ZM1423.0907935892928 350.7772474077241L1381.9450309124613 350.7772474077241L1381.9450309124613 362.75692933935295L1409.3332083321216 362.75692933935295L1409.3332083321216 453.1548472368566L1381.9450309124613 453.1548472368566L1381.9450309124613 465.0710326211447L1449.3571986725992 465.0710326211447L1449.3571986725992 453.1548472368566L1423.0907935892928 453.1548472368566L1423.0907935892928 350.7772474077241ZM1514.5469872758094 350.7772474077241L1473.401224598978 350.7772474077241L1473.401224598978 362.75692933935295L1500.7894020186382 362.75692933935295L1500.7894020186382 453.1548472368566L1473.401224598978 453.1548472368566L1473.401224598978 465.0710326211447L1540.8133923591158 465.0710326211447L1540.8133923591158 453.1548472368566L1514.5469872758094 453.1548472368566L1514.5469872758094 350.7772474077241ZM1569.1751835046684 497.5812648596288L1569.1751835046684 497.5812648596288Q1574.5935555444157 497.5812648596288 1578.7631621531273 495.57054086050385Q1582.9327687618393 493.55981686137886 1586.0652650973184 490.596644652142L1586.0652650973184 490.596644652142Q1589.176595917017 487.6123069271249 1591.3778095581642 484.1199968233815Q1593.579023199312 480.6276867196381 1594.997112756589 477.4951903841591L1594.997112756589 477.4951903841591L1635.8465582124973 384.5574105930239L1620.4380627244655 384.5574105930239L1599.6746917440278 436.7939035387132L1595.8860644193605 446.2548890924908L1592.3090922524962 436.4975863177895L1570.2122937779013 384.5574105930239L1554.8037982898695 384.5574105930239L1589.4729131379404 461.28240529647763L1583.9698790350722 471.99215628129076Q1583.229085982763 473.47374238590913 1581.9379895201669 475.7807836059578Q1580.6257275417906 478.0878248260065 1578.8478242162487 480.24670743559335L1578.8478242162487 480.24670743559335Q1576.9852588275853 482.4055900451802 1574.6358865759762 483.97183821291964Q1572.286514324367 485.5380863806591 1569.4715007255923 485.5380863806591L1569.4715007255923 485.5380863806591Q1568.413224936579 485.5380863806591 1566.5929905794765 485.43225880175777Q1564.7727562223736 485.3052657070762 1562.9101908337107 485.1571070966144L1562.9101908337107 485.1571070966144L1560.687811676783 496.3959959759341Q1562.0212391709392 496.69231319685775 1564.6245976119117 497.1367890282433Q1567.227956052884 497.5812648596288 1569.1751835046684 497.5812648596288Z " fill="#5d5fef" transform="matrix(0.5348912366120513,0,0,0.5348912366120513,0,73.96498627538375)"/></g></svg>